# xmcd
#
# Track frame offsets:
#	150
#	17549
#	34155
#	51634
#	65452
#	78652
#	94335
#	111749
#	123578
#	140574
#	158262
#	170499
#	186236
#	209018
#	230065
#	248448
#	264293
#	278750
#	294418
#	309025
#	322815
#	337730
#
# Disc length: 4761 seconds
#
# Revision: 1
# Processed by: cddbd v1.5.2PL0 Copyright (c) Steve Scherf et al.
# Submitted via: audiograbber 1.83.01
#
DISCID=3a129716
DTITLE=K-Paz - 22 Grandes
DYEAR=1900
DGENRE=
TTITLE0=Volvere Por Que Me Faltas Tu
TTITLE1=No Me Supiste Querer
TTITLE2=querido Amigo
TTITLE3=Mi Credo
TTITLE4=La Pava
TTITLE5=Necesito Una Companera
TTITLE6=Un Buen Perdedor
TTITLE7=Jambalaya
TTITLE8=Y Aqui Estoy
TTITLE9=Mi Eterno Amor Secreto
TTITLE10=No Volvere
TTITLE11=El Pasadiscos
TTITLE12=Procuro Olvidarte
TTITLE13=Silueta De Cristal
TTITLE14=Ese Loco Soy Yo
TTITLE15=Con Holor A Hierba
TTITLE16=Pero Te vas Arrepentir
TTITLE17=No Te Apartes de Mi
TTITLE18=Amor No Me Ignores
TTITLE19=Si Tu Te Fuerras De Mi
TTITLE20=Muneca Ojos De Miel
TTITLE21=He Venido A Pedirte Perdon
EXTD=
EXTT0=
EXTT1=
EXTT2=
EXTT3=
EXTT4=
EXTT5=
EXTT6=
EXTT7=
EXTT8=
EXTT9=
EXTT10=
EXTT11=
EXTT12=
EXTT13=
EXTT14=
EXTT15=
EXTT16=
EXTT17=
EXTT18=
EXTT19=
EXTT20=
EXTT21=
PLAYORDER=
